<svg width="29" height="18" viewBox="0 0 29 18" fill="none" xmlns="http://www.w3.org/2000/svg">
<path fill-rule="evenodd" clip-rule="evenodd" d="M28.8501 0L28.9574 17.6824L17.6862 17.7972C13.2283 17.8425 9.58277 14.2557 9.55573 9.79773L9.53754 6.79908L13.2522 6.77654L13.2704 9.77519C13.285 12.1757 15.248 14.107 17.6484 14.0826L25.2202 14.0055L25.1581 3.76256L20.0468 3.82829L19.999 0.113823L28.8501 0Z" fill="#FF7A00"/>
<path fill-rule="evenodd" clip-rule="evenodd" d="M0.107422 18L0.000164156 0.3176L11.893 0.196509C16.0079 0.154613 19.3731 3.46551 19.398 7.5806L19.4234 11.7594L15.7087 11.782L15.6833 7.60314C15.6708 5.54559 13.9883 3.89014 11.9308 3.91109L3.73731 3.99451L3.79944 14.2374L8.91074 14.1717L8.9585 17.8862L0.107422 18Z" fill="white"/>
</svg>
