<svg width="121" height="23" viewBox="0 0 121 23" fill="none" xmlns="http://www.w3.org/2000/svg">
<path d="M118.298 18.9962V8.0332H121.005V18.9962H118.298Z" fill="white"/>
<path d="M107.936 18.9965H105.229V2.48535H107.959V9.45375C108.647 8.38852 109.934 7.70056 111.509 7.70056C114.217 7.70056 115.637 9.40937 115.637 12.25V18.9965H112.93V12.8936C112.93 11.0516 112.02 10.1639 110.644 10.1639C108.935 10.1639 107.936 11.3623 107.936 13.0045V18.9965Z" fill="white"/>
<path d="M94.113 15.6673H96.6874C96.7095 16.6215 97.4197 17.2207 98.6625 17.2207C99.9274 17.2207 100.615 16.7103 100.615 15.9114C100.615 15.3566 100.327 14.9571 99.3504 14.7352L97.3753 14.2691C95.4002 13.8253 94.4459 12.8932 94.4459 11.14C94.4459 8.98735 96.2657 7.7002 98.7956 7.7002C101.259 7.7002 102.923 9.12051 102.946 11.251H100.371C100.349 10.3189 99.7277 9.7197 98.6847 9.7197C97.6194 9.7197 96.998 10.2079 96.998 11.029C96.998 11.6504 97.4863 12.0499 98.4184 12.2718L100.393 12.7379C102.235 13.1595 103.168 14.0028 103.168 15.6894C103.168 17.9087 101.281 19.2846 98.5737 19.2846C95.844 19.2846 94.113 17.8199 94.113 15.6673Z" fill="white"/>
<path d="M81.0928 13.4922C81.0928 10.0746 83.5561 7.72217 86.9516 7.72217C90.347 7.72217 92.8103 10.0746 92.8103 13.4922C92.8103 16.9098 90.347 19.2622 86.9516 19.2622C83.5561 19.2622 81.0928 16.9098 81.0928 13.4922ZM83.8002 13.4922C83.8002 15.4895 85.0874 16.8432 86.9516 16.8432C88.8157 16.8432 90.1029 15.4895 90.1029 13.4922C90.1029 11.4949 88.8157 10.1411 86.9516 10.1411C85.0874 10.1411 83.8002 11.4949 83.8002 13.4922Z" fill="white"/>
<path d="M78.0311 18.9964H75.3236V10.297H73.2153V8.03335H75.3236V4.61572H78.0311V8.03335H80.1615V10.297H78.0311V18.9964Z" fill="white"/>
<path d="M68.1714 17.3985C67.8755 18.0938 67.4612 18.5895 66.9286 18.8854C66.396 19.1665 65.7746 19.307 65.0645 19.307C64.3987 19.307 63.7699 19.1813 63.1781 18.9298C62.6011 18.6782 62.0907 18.3084 61.6468 17.8201C61.203 17.3319 60.8479 16.7401 60.5816 16.0447C60.3301 15.3494 60.2043 14.5579 60.2043 13.6702V13.3151C60.2043 12.4422 60.3301 11.6581 60.5816 10.9627C60.8331 10.2673 61.1734 9.67554 61.6025 9.1873C62.0315 8.69907 62.5271 8.3292 63.0894 8.07769C63.6664 7.81138 64.2803 7.67822 64.9313 7.67822C65.7154 7.67822 66.3442 7.81138 66.8177 8.07769C67.3059 8.34399 67.6906 8.75825 67.9717 9.32046H68.3711V7.98892H71.1674V15.6675C71.1674 16.1113 71.3671 16.3332 71.7666 16.3332H72.1882V18.9963H70.2797C69.7767 18.9963 69.3624 18.8484 69.0369 18.5525C68.7262 18.2566 68.5709 17.8719 68.5709 17.3985H68.1714ZM65.6859 16.6439C66.4996 16.6439 67.1506 16.3776 67.6388 15.845C68.127 15.2976 68.3711 14.5579 68.3711 13.6258V13.3595C68.3711 12.4274 68.127 11.695 67.6388 11.1624C67.1506 10.615 66.4996 10.3413 65.6859 10.3413C64.8721 10.3413 64.2212 10.615 63.7329 11.1624C63.2447 11.695 63.0006 12.4274 63.0006 13.3595V13.6258C63.0006 14.5579 63.2447 15.2976 63.7329 15.845C64.2212 16.3776 64.8721 16.6439 65.6859 16.6439Z" fill="white"/>
<path d="M47.0483 7.30109C47.0483 4.46047 49.4007 2.48535 52.8184 2.48535C56.1028 2.48535 58.1889 4.30512 58.2777 7.23452H55.4371C55.3705 5.8364 54.3718 5.01528 52.774 5.01528C51.0208 5.01528 49.889 5.85859 49.889 7.21232C49.889 8.36633 50.5103 9.00991 51.8641 9.3206L54.4162 9.87541C57.1903 10.4746 58.544 11.8949 58.544 14.3139C58.544 17.332 56.1916 19.285 52.6186 19.285C49.1566 19.285 46.893 17.443 46.8264 14.5358H49.667C49.6892 15.9117 50.7988 16.7329 52.6186 16.7329C54.505 16.7329 55.7034 15.9117 55.7034 14.558C55.7034 13.4706 55.1486 12.827 53.817 12.5385L51.2427 11.9615C48.4908 11.3623 47.0483 9.78664 47.0483 7.30109Z" fill="white"/>
<rect x="118.308" y="2.67773" width="2.61087" height="2.61087" fill="#FF7A00"/>
<path fill-rule="evenodd" clip-rule="evenodd" d="M36.24 0.257324L36.3711 21.8691L22.5952 22.0094C17.1467 22.0649 12.691 17.681 12.658 12.2323L12.6358 8.56731L17.1759 8.53977L17.1982 12.2048C17.216 15.1387 19.6152 17.4992 22.549 17.4694L31.8035 17.3751L31.7275 4.85601L25.4804 4.93634L25.422 0.396441L36.24 0.257324Z" fill="#FF7A00"/>
<path fill-rule="evenodd" clip-rule="evenodd" d="M1.11353 22.2573L0.982433 0.645505L15.5181 0.497506C20.5475 0.4463 24.6604 4.49295 24.6909 9.52251L24.7219 14.63L20.1817 14.6575L20.1507 9.55005C20.1355 7.03526 18.079 5.01195 15.5643 5.03755L5.55005 5.13951L5.62599 17.6586L11.8731 17.5783L11.9315 22.1182L1.11353 22.2573Z" fill="white"/>
</svg>
