<svg width="32" height="32" viewBox="0 0 32 32" fill="none" xmlns="http://www.w3.org/2000/svg"><g clip-path="url(#clip0_2351_779)"><path d="M16 32C24.8366 32 32 24.8366 32 16C32 7.16344 24.8366 0 16 0C7.16344 0 0 7.16344 0 16C0 24.8366 7.16344 32 16 32Z" fill="#00E99F"/><path d="M16.0006 28.2858C22.7858 28.2858 28.2863 22.7853 28.2863 16.0001C28.2863 9.21486 22.7858 3.71436 16.0006 3.71436C9.21535 3.71436 3.71484 9.21486 3.71484 16.0001C3.71484 22.7853 9.21535 28.2858 16.0006 28.2858Z" stroke="black"/><path d="M27.1412 16C27.1412 22.1541 22.1524 27.1429 15.9983 27.1429C9.84427 27.1429 4.85547 22.1541 4.85547 16C4.85547 9.84598 9.84427 4.85718 15.9983 4.85718C22.1524 4.85718 27.1412 9.84598 27.1412 16Z" stroke="black" stroke-width="0.5"/><path fill-rule="evenodd" clip-rule="evenodd" d="M16.2167 11.1743C15.9198 11.1643 15.6095 11.1622 15.2868 11.1668V9.32056H13.8907V11.2217C13.1583 11.2659 12.3792 11.3332 11.5625 11.4149V12.811H12.9586V18.8607H11.7952V20.4895H13.8893V22.5836H15.2854V20.4895H16.2161V22.5836H17.3795V20.4895C18.4654 20.4119 20.6836 19.7915 20.8698 17.93C21.0559 16.0686 19.7064 15.6032 19.0083 15.6032C19.5512 15.3705 20.544 14.5328 20.1717 13.0436C19.9215 12.043 19.0072 11.5204 17.6128 11.2984V9.32164H16.2167V11.1743ZM18.0737 13.9723C18.0737 12.8554 16.2122 12.7313 15.2815 12.8088V15.1356C16.2122 15.2132 18.0737 15.0891 18.0737 13.9723ZM15.2826 16.5322V18.8591C16.2133 18.9366 18.3075 18.859 18.3075 17.6956C18.3075 16.2994 16.2133 16.4547 15.2826 16.5322Z" fill="black"/></g><defs><clipPath id="clip0_2351_779"><rect width="32" height="32" fill="white"/></clipPath></defs></svg>